<?xml version="1.0" encoding="UTF-8" standalone="no"?>
<!-- Created with Inkscape (http://www.inkscape.org/) -->

<svg
   width="100"
   height="100"
   viewBox="0 0 26.458333 26.458334"
   version="1.1"
   id="svg5"
   inkscape:version="1.1.2 (76b9e6a115, 2022-02-25)"
   sodipodi:docname="drawing-2.svg"
   xmlns:inkscape="http://www.inkscape.org/namespaces/inkscape"
   xmlns:sodipodi="http://sodipodi.sourceforge.net/DTD/sodipodi-0.dtd"
   xmlns="http://www.w3.org/2000/svg"
   xmlns:svg="http://www.w3.org/2000/svg">
  <sodipodi:namedview
     id="namedview7"
     pagecolor="#ffffff"
     bordercolor="#666666"
     borderopacity="1.0"
     inkscape:pageshadow="2"
     inkscape:pageopacity="0.0"
     inkscape:pagecheckerboard="0"
     inkscape:document-units="mm"
     showgrid="false"
     inkscape:zoom="3.4921437"
     inkscape:cx="40.834911"
     inkscape:cy="44.44659"
     inkscape:window-width="1366"
     inkscape:window-height="662"
     inkscape:window-x="0"
     inkscape:window-y="27"
     inkscape:window-maximized="1"
     inkscape:current-layer="layer1"
     units="px"
     inkscape:rotation="-1" />
  <defs
     id="defs2" />
  <g
     inkscape:label="Layer 1"
     inkscape:groupmode="layer"
     id="layer1">
    <path
       id="path3870"
       style="fill:#ff7f2a;stroke-width:0.190871;stroke-linecap:round;stroke-linejoin:round;paint-order:fill markers stroke"
       d="m 13.080462,0.35829222 c -0.569918,0 -1.139834,0.21832802 -1.576539,0.65502948 L 8.4065985,4.1104888 11.559834,7.2637226 13.08062,5.7429394 22.148792,14.811111 c 0.873411,0.873409 2.279669,0.873409 3.153077,0 0.873406,-0.873407 0.873406,-2.279672 0,-3.153078 L 14.657001,1.0133217 C 14.220296,0.57662024 13.65039,0.35829222 13.080462,0.35829222 Z M 7.7895282,4.7278734 6.2344085,6.2828374 C 6.1798208,6.3374251 6.1286171,6.3941253 6.0808483,6.4526182 5.9375548,6.6280891 5.8250571,6.8199471 5.7431766,7.0211798 c -0.013655,0.033538 -0.026488,0.067248 -0.038435,0.1012721 -0.1433346,0.4083546 -0.163788,0.8494849 -0.061421,1.2672142 0.00854,0.034813 0.017947,0.069346 0.028197,0.1037912 0.081876,0.2756467 0.2182447,0.5386763 0.409333,0.7726789 0.047765,0.058491 0.098969,0.1151921 0.1535601,0.1697808 l 9.0681713,9.068171 -1.502988,1.503146 3.153078,3.153079 3.079527,-3.079686 c 0.136441,-0.136438 0.251584,-0.285915 0.345388,-0.444297 v -1.61e-4 c 0.206411,-0.348534 0.309638,-0.740264 0.309638,-1.132087 0,-0.03561 -9.13e-4,-0.07119 -0.0025,-0.106786 -0.01533,-0.320245 -0.09977,-0.637954 -0.253251,-0.92923 v -1.61e-4 C 20.329134,17.273697 20.196,17.091299 20.032232,16.927535 L 12.701481,9.5967069 c -0.02987,-0.00324 -0.05891,-0.015752 -0.0819,-0.038738 z M 2.5414313,10.897322 c -0.5699175,0 -1.1398349,0.218325 -1.57653853,0.65503 -0.87340939,0.873407 -0.87340939,2.279669 0,3.153078 L 11.609604,25.350139 c 0.464,0.463998 1.078336,0.681512 1.683319,0.652506 0.533821,-0.0256 1.060343,-0.243091 1.469759,-0.652506 l 1.572601,-1.572761 -6.7359637,-6.735961 c -0.00897,-0.009 -0.015785,-0.01899 -0.021731,-0.02944 L 4.1179719,11.552352 C 3.6812662,11.115647 3.1113498,10.897322 2.5414313,10.897322 Z"
       sodipodi:nodetypes="sccccssccsccsscscscccccccscccccccsssssccscss"
       inkscape:export-filename="/home/riyo/snap/inkscape/10088/path3870.png"
       inkscape:export-xdpi="96"
       inkscape:export-ydpi="96" />
    <rect
       style="fill:#ff7f2a;stroke-width:0.964999;stroke-linecap:round;stroke-linejoin:round;paint-order:fill markers stroke"
       id="rect1019"
       width="98.653229"
       height="22.54447"
       x="-397.47964"
       y="144.41562"
       ry="11.272235" />
    <rect
       style="fill:#ff7f2a;stroke-width:0.964999;stroke-linecap:round;stroke-linejoin:round;paint-order:fill markers stroke"
       id="rect1035"
       width="98.653229"
       height="22.54447"
       x="-397.47964"
       y="178.92769"
       ry="11.272235" />
    <rect
       style="fill:#ff7f2a;stroke-width:0.733878;stroke-linecap:round;stroke-linejoin:round;paint-order:fill markers stroke"
       id="rect1037"
       width="57.056549"
       height="22.54447"
       x="109.90353"
       y="374.93518"
       ry="11.272235"
       transform="rotate(90)" />
    <rect
       style="fill:#ff7f2a;stroke-width:0.733878;stroke-linecap:round;stroke-linejoin:round;paint-order:fill markers stroke"
       id="rect1039"
       width="57.056549"
       height="22.54447"
       x="144.41562"
       y="298.82642"
       ry="11.272235"
       transform="rotate(90)" />
    <text
       xml:space="preserve"
       style="font-style:normal;font-weight:normal;font-size:10.5833px;line-height:1.25;font-family:sans-serif;fill:#000000;fill-opacity:1;stroke:none;stroke-width:0.264583"
       x="-380.30811"
       y="75.619217"
       id="text2255"><tspan
         sodipodi:role="line"
         id="tspan2253"
         style="stroke-width:0.264583"
         x="-380.30811"
         y="75.619217">SCROOGY</tspan></text>
    <rect
       style="fill:#ff7f2a;stroke-width:0.964999;stroke-linecap:round;stroke-linejoin:round;paint-order:fill markers stroke"
       id="rect3165"
       width="116.04995"
       height="116.04995"
       x="-181.60196"
       y="63.076443"
       ry="11.272228" />
    <rect
       style="fill:#ffffff;stroke-width:0.75848;stroke-linecap:round;stroke-linejoin:round;paint-order:fill markers stroke"
       id="rect3247"
       width="91.214088"
       height="91.214088"
       x="-169.18404"
       y="75.49437"
       ry="3.2901161" />
    <path
       id="rect923"
       style="fill:#ff7f2a;stroke-width:0.626269;stroke-linecap:round;stroke-linejoin:round;paint-order:fill markers stroke"
       d="m -123.75042,79.026138 c -1.86997,0 -3.73991,0.716344 -5.17279,2.149221 l -17.28991,17.289902 c -0.17912,0.17911 -0.34713,0.365157 -0.50385,0.557072 -0.47016,0.575747 -0.83928,1.205257 -1.10794,1.865517 -0.0448,0.11005 -0.0869,0.22064 -0.1261,0.33228 -0.4703,1.33987 -0.5374,2.78726 -0.20153,4.15789 0.028,0.1142 0.0589,0.22751 0.0925,0.34054 0.26866,0.90444 0.7161,1.76745 1.34308,2.53525 0.15672,0.19192 0.32473,0.37796 0.50385,0.55707 l 29.75374,29.75374 -6.94428,6.94428 -29.75374,-29.75374 c -2.86576,-2.86575 -7.47987,-2.86575 -10.34562,0 -2.86576,2.86576 -2.86576,7.47987 0,10.34562 l 34.92655,34.92656 c 1.52244,1.52243 3.53814,2.23611 5.52317,2.14096 1.75152,-0.084 3.47912,-0.79764 4.82246,-2.14096 l 17.28988,-17.28991 c 0.44768,-0.44766 0.82548,-0.93812 1.133274,-1.45779 0,0 0,-5.3e-4 0,-5.3e-4 0.67725,-1.14357 1.01597,-2.42889 1.01597,-3.7145 0,-0.11687 -0.003,-0.2336 -0.008,-0.35037 -0.0503,-1.05075 -0.32734,-2.09319 -0.83095,-3.04891 0,0 0,-5.2e-4 0,-5.2e-4 -0.33584,-0.63722 -0.772664,-1.23569 -1.310014,-1.77302 l -29.75374,-29.75374 6.94428,-6.94428 29.753744,29.75374 c 2.86576,2.86575 7.47988,2.86575 10.34564,0 2.86575,-2.86576 2.86575,-7.47987 0,-10.34562 L -118.5776,81.175359 c -1.43288,-1.432877 -3.30282,-2.149221 -5.17282,-2.149221 z" />
    <rect
       style="fill:#ffffff;stroke-width:0.753853;stroke-linecap:round;stroke-linejoin:round;paint-order:fill markers stroke"
       id="rect3683"
       width="40.482353"
       height="2.8640449"
       x="-51.384617"
       y="162.93416"
       ry="0"
       rx="0.44774461"
       transform="rotate(45)" />
    <rect
       style="fill:#ffffff;stroke-width:0.753853;stroke-linecap:round;stroke-linejoin:round;paint-order:fill markers stroke"
       id="rect3864"
       width="40.482353"
       height="2.8640449"
       x="-1.4427676"
       y="187.30371"
       ry="0"
       rx="0.44774461"
       transform="rotate(45)" />
  </g>
</svg>
